<svg xmlns="http://www.w3.org/2000/svg" xmlns:xlink="http://www.w3.org/1999/xlink" width="1640" zoomAndPan="magnify" viewBox="0 0 1230 225" height="300" preserveAspectRatio="xMidYMid meet" version="1.0"><defs><g/></defs><g fill="#ffffff" fill-opacity="1"><g transform="translate(0, 177.750003)"><g><path d="M 33.828125 0 L 33.828125 -53.132812 L 65.945312 -53.132812 C 90.546875 -53.132812 107.117188 -67.652344 107.117188 -92.253906 C 107.117188 -118.734375 90.375 -130.351562 65.945312 -130.351562 L 12.128906 -130.351562 L 12.128906 0 Z M 33.828125 -110.875 L 63.039062 -110.875 C 77.5625 -110.875 85.761719 -104.042969 85.761719 -91.570312 C 85.761719 -78.929688 77.734375 -72.09375 63.039062 -72.09375 L 33.828125 -72.09375 Z M 33.828125 -110.875 "/></g></g></g><g fill="#ffffff" fill-opacity="1"><g transform="translate(112.23923, 177.750003)"><g><path d="M 43.90625 1.878906 C 55.011719 1.878906 62.871094 -2.5625 70.730469 -12.984375 L 70.730469 0 L 90.886719 0 L 90.886719 -95.5 L 70.730469 -95.5 L 70.730469 -49.375 C 70.730469 -34.679688 68.847656 -26.480469 64.066406 -21.183594 C 60.476562 -17.253906 55.523438 -15.035156 48.691406 -15.035156 C 42.710938 -15.035156 38.441406 -16.570312 35.707031 -19.648438 C 32.289062 -23.40625 30.75 -29.554688 30.75 -39.464844 L 30.75 -95.5 L 10.59375 -95.5 L 10.59375 -39.636719 C 10.59375 -26.824219 11.617188 -19.988281 14.691406 -13.839844 C 19.816406 -3.417969 29.554688 1.878906 43.90625 1.878906 Z M 43.90625 1.878906 "/></g></g></g><g fill="#ffffff" fill-opacity="1"><g transform="translate(214.057471, 177.750003)"><g><path d="M 87.300781 0 L 87.300781 -16.742188 L 32.289062 -16.742188 L 87.640625 -79.785156 L 87.640625 -95.5 L 8.542969 -95.5 L 8.542969 -78.757812 L 62.1875 -78.757812 L 5.46875 -14.351562 L 5.46875 0 Z M 87.300781 0 "/></g></g></g><g fill="#ffffff" fill-opacity="1"><g transform="translate(307.675585, 177.750003)"><g><path d="M 87.300781 0 L 87.300781 -16.742188 L 32.289062 -16.742188 L 87.640625 -79.785156 L 87.640625 -95.5 L 8.542969 -95.5 L 8.542969 -78.757812 L 62.1875 -78.757812 L 5.46875 -14.351562 L 5.46875 0 Z M 87.300781 0 "/></g></g></g><g fill="#ffffff" fill-opacity="1"><g transform="translate(401.2937, 177.750003)"><g><path d="M 45.445312 0 L 45.445312 -16.914062 L 39.804688 -16.914062 C 32.632812 -16.914062 30.75 -20.160156 30.75 -27.335938 L 30.75 -130.351562 L 10.59375 -130.351562 L 10.59375 -22.039062 C 10.59375 -5.636719 18.792969 0 32.972656 0 Z M 45.445312 0 "/></g></g></g><g fill="#ffffff" fill-opacity="1"><g transform="translate(451.348645, 177.750003)"><g><path d="M 54.839844 1.878906 C 79.953125 1.878906 94.476562 -13.324219 100.113281 -31.605469 L 79.269531 -31.605469 C 75.855469 -23.0625 67.484375 -15.71875 55.351562 -15.71875 C 44.417969 -15.71875 35.363281 -22.210938 30.921875 -32.972656 C 29.214844 -35.875 28.1875 -39.976562 27.675781 -43.566406 L 101.820312 -43.566406 L 101.820312 -48.691406 C 101.820312 -81.832031 78.757812 -97.210938 54.328125 -97.210938 C 22.894531 -97.210938 7.175781 -72.4375 7.175781 -47.324219 C 7.175781 -19.132812 26.308594 1.878906 54.839844 1.878906 Z M 28.871094 -59.453125 C 29.386719 -62.015625 30.238281 -65.433594 32.289062 -68.507812 C 37.074219 -76.539062 45.101562 -80.808594 55.011719 -80.808594 C 64.578125 -80.808594 73.121094 -76.707031 77.734375 -68.507812 C 79.613281 -65.605469 80.46875 -62.1875 80.808594 -59.453125 Z M 28.871094 -59.453125 "/></g></g></g><g fill="#ffffff" fill-opacity="1"><g transform="translate(560.17115, 177.750003)"><g/></g></g><g fill="#ffffff" fill-opacity="1"><g transform="translate(606.638555, 177.750003)"><g><path d="M 33.828125 0 L 33.828125 -53.132812 L 65.945312 -53.132812 C 90.546875 -53.132812 107.117188 -67.652344 107.117188 -92.253906 C 107.117188 -118.734375 90.375 -130.351562 65.945312 -130.351562 L 12.128906 -130.351562 L 12.128906 0 Z M 33.828125 -110.875 L 63.039062 -110.875 C 77.5625 -110.875 85.761719 -104.042969 85.761719 -91.570312 C 85.761719 -78.929688 77.734375 -72.09375 63.039062 -72.09375 L 33.828125 -72.09375 Z M 33.828125 -110.875 "/></g></g></g><g fill="#ffffff" fill-opacity="1"><g transform="translate(718.877809, 177.750003)"><g><path d="M 21.183594 -107.800781 C 28.53125 -107.800781 34.339844 -112.925781 34.339844 -120.101562 C 34.339844 -127.277344 28.53125 -132.402344 21.183594 -132.402344 C 14.007812 -132.402344 8.03125 -127.277344 8.03125 -120.101562 C 8.03125 -112.925781 14.007812 -107.800781 21.183594 -107.800781 Z M 31.265625 0 L 31.265625 -95.5 L 11.105469 -95.5 L 11.105469 0 Z M 31.265625 0 "/></g></g></g><g fill="#ffffff" fill-opacity="1"><g transform="translate(761.074279, 177.750003)"><g><path d="M 54.839844 1.878906 C 79.953125 1.878906 94.476562 -13.324219 100.113281 -31.605469 L 79.269531 -31.605469 C 75.855469 -23.0625 67.484375 -15.71875 55.351562 -15.71875 C 44.417969 -15.71875 35.363281 -22.210938 30.921875 -32.972656 C 29.214844 -35.875 28.1875 -39.976562 27.675781 -43.566406 L 101.820312 -43.566406 L 101.820312 -48.691406 C 101.820312 -81.832031 78.757812 -97.210938 54.328125 -97.210938 C 22.894531 -97.210938 7.175781 -72.4375 7.175781 -47.324219 C 7.175781 -19.132812 26.308594 1.878906 54.839844 1.878906 Z M 28.871094 -59.453125 C 29.386719 -62.015625 30.238281 -65.433594 32.289062 -68.507812 C 37.074219 -76.539062 45.101562 -80.808594 55.011719 -80.808594 C 64.578125 -80.808594 73.121094 -76.707031 77.734375 -68.507812 C 79.613281 -65.605469 80.46875 -62.1875 80.808594 -59.453125 Z M 28.871094 -59.453125 "/></g></g></g><g fill="#ffffff" fill-opacity="1"><g transform="translate(869.896785, 177.750003)"><g><path d="M 54.667969 1.878906 C 77.222656 1.878906 94.476562 -10.59375 98.917969 -31.605469 L 77.050781 -31.605469 C 74.488281 -21.527344 66.457031 -15.035156 54.667969 -15.035156 C 38.78125 -15.035156 27.675781 -28.1875 27.675781 -48.175781 C 27.675781 -67.484375 38.78125 -80.46875 54.667969 -80.46875 C 65.433594 -80.46875 73.292969 -75 76.539062 -65.433594 L 98.40625 -65.433594 C 93.964844 -84.910156 77.222656 -97.210938 54.667969 -97.210938 C 26.308594 -97.210938 7.175781 -76.878906 7.175781 -48.175781 C 7.175781 -18.449219 26.480469 1.878906 54.667969 1.878906 Z M 54.667969 1.878906 "/></g></g></g><g fill="#ffffff" fill-opacity="1"><g transform="translate(974.79003, 177.750003)"><g><path d="M 54.839844 1.878906 C 79.953125 1.878906 94.476562 -13.324219 100.113281 -31.605469 L 79.269531 -31.605469 C 75.855469 -23.0625 67.484375 -15.71875 55.351562 -15.71875 C 44.417969 -15.71875 35.363281 -22.210938 30.921875 -32.972656 C 29.214844 -35.875 28.1875 -39.976562 27.675781 -43.566406 L 101.820312 -43.566406 L 101.820312 -48.691406 C 101.820312 -81.832031 78.757812 -97.210938 54.328125 -97.210938 C 22.894531 -97.210938 7.175781 -72.4375 7.175781 -47.324219 C 7.175781 -19.132812 26.308594 1.878906 54.839844 1.878906 Z M 28.871094 -59.453125 C 29.386719 -62.015625 30.238281 -65.433594 32.289062 -68.507812 C 37.074219 -76.539062 45.101562 -80.808594 55.011719 -80.808594 C 64.578125 -80.808594 73.121094 -76.707031 77.734375 -68.507812 C 79.613281 -65.605469 80.46875 -62.1875 80.808594 -59.453125 Z M 28.871094 -59.453125 "/></g></g></g><g fill="#ffffff" fill-opacity="1"><g transform="translate(1083.612535, 177.750003)"><g><path d="M 21.011719 1.878906 C 27.675781 1.878906 33.144531 -3.929688 33.144531 -10.761719 C 33.144531 -17.425781 27.675781 -23.0625 21.011719 -23.0625 C 14.007812 -23.0625 8.199219 -17.597656 8.199219 -10.761719 C 8.199219 -3.757812 14.007812 1.878906 21.011719 1.878906 Z M 21.011719 1.878906 "/></g></g></g></svg>